<?xml version="1.0" standalone="no"?>
<!DOCTYPE svg PUBLIC "-//W3C//DTD SVG 20010904//EN"
 "http://www.w3.org/TR/2001/REC-SVG-20010904/DTD/svg10.dtd">
<svg version="1.0" xmlns="http://www.w3.org/2000/svg"
 width="1280.000000pt" height="1280.000000pt" viewBox="0 0 1280.000000 1280.000000"
 preserveAspectRatio="xMidYMid meet">
<metadata>
Created by potrace 1.14, written by Peter Selinger 2001-2017
</metadata>
<g transform="translate(0.000000,1280.000000) scale(0.100000,-0.100000)"
fill="#000000" stroke="none">
<path d="M6130 11410 c-130 -9 -235 -19 -320 -30 -36 -5 -87 -12 -115 -15 -95
-12 -401 -76 -532 -110 -821 -218 -1576 -646 -2178 -1234 -247 -242 -421 -448
-621 -736 -364 -524 -638 -1169 -768 -1810 -30 -146 -63 -363 -71 -465 -4 -41
-9 -86 -12 -100 -9 -44 -12 -682 -3 -775 5 -49 12 -121 15 -160 3 -38 8 -79
10 -90 2 -11 7 -42 10 -70 3 -27 15 -102 26 -165 121 -677 379 -1322 755
-1882 79 -117 197 -282 214 -298 3 -3 43 -52 89 -110 47 -58 90 -108 95 -112
7 -5 5 -18 -6 -40 -23 -44 -48 -108 -43 -108 3 0 0 -12 -6 -27 -6 -16 -13 -41
-14 -58 -2 -16 -6 -48 -9 -70 -33 -238 -26 -432 21 -595 9 -30 16 -61 16 -67
0 -7 4 -13 8 -13 4 0 10 -15 14 -33 4 -17 13 -42 21 -55 8 -12 12 -22 10 -22
-9 0 186 -374 218 -419 46 -62 112 -122 193 -177 64 -43 68 -44 71 -24 2 12 0
29 -4 38 -4 9 -7 20 -6 24 1 4 -3 19 -8 33 -24 64 -31 202 -17 360 7 76 10 96
22 155 2 13 7 42 10 65 4 22 10 56 16 76 16 62 23 159 22 301 l-1 138 59 -47
c125 -98 131 -104 120 -140 -5 -18 -8 -42 -6 -55 2 -13 6 -36 9 -53 20 -129
164 -456 236 -538 22 -25 40 -47 40 -50 0 -3 30 -34 66 -69 105 -100 314 -308
314 -312 0 -2 19 -24 43 -49 56 -60 97 -106 127 -146 14 -18 37 -47 52 -64 15
-18 28 -35 28 -39 0 -3 20 -37 45 -75 25 -37 45 -73 45 -80 0 -6 3 -13 8 -15
10 -4 49 -89 84 -183 33 -90 147 -315 160 -315 4 0 8 22 8 49 0 29 13 89 31
142 32 96 40 161 40 349 1 98 -9 264 -16 290 -2 8 -7 31 -10 50 -9 58 -44 180
-60 211 -9 16 -13 29 -11 29 3 0 -9 30 -25 67 -85 190 -153 306 -258 444 -48
62 -181 168 -328 261 -29 18 -96 60 -149 94 l-96 61 39 2 c69 3 120 10 233 30
86 16 133 26 222 49 90 23 344 169 326 188 -3 2 -29 7 -59 10 -29 3 -65 12
-79 19 -14 7 -50 20 -80 30 -30 10 -93 36 -140 58 -47 22 -87 41 -90 41 -3 1
-75 35 -160 77 -85 42 -171 82 -190 89 -19 7 -39 17 -45 22 -5 4 -17 8 -27 8
-10 0 -18 5 -18 12 0 6 -3 9 -6 5 -3 -3 -27 1 -52 8 -161 47 -379 26 -523 -50
-27 -14 -52 -25 -55 -25 -4 0 -45 39 -91 87 -310 319 -591 711 -803 1119 -56
107 -163 341 -190 414 -7 19 -18 49 -25 65 -56 129 -161 484 -209 705 -117
539 -134 1176 -46 1725 140 874 507 1667 1085 2349 94 111 377 396 480 483
131 111 152 129 179 148 16 11 33 25 40 31 50 46 317 228 471 321 604 361
1336 596 2025 649 47 3 99 8 115 10 68 8 500 4 625 -6 621 -49 1162 -195 1720
-462 866 -415 1596 -1104 2075 -1958 32 -57 163 -322 208 -422 64 -139 176
-461 226 -648 54 -202 110 -490 126 -645 4 -33 8 -71 10 -85 3 -22 10 -103 20
-240 5 -60 5 -464 0 -515 -1 -22 -6 -83 -10 -135 -3 -52 -8 -108 -10 -125 -87
-651 -222 -1102 -487 -1630 -320 -635 -804 -1211 -1383 -1646 -610 -458 -1347
-770 -2100 -888 -71 -11 -161 -23 -200 -27 -38 -3 -78 -8 -87 -10 -51 -9 -279
-18 -458 -18 -266 0 -400 9 -660 45 -225 31 -563 105 -560 123 1 5 -3 12 -9
15 -5 4 -11 24 -13 45 -1 20 -6 40 -10 42 -4 3 -8 18 -8 33 0 15 -3 31 -7 35
-4 3 -8 14 -9 24 -1 9 -5 31 -9 47 -4 17 -7 40 -8 53 -1 12 -4 22 -7 22 -4 0
-7 6 -7 13 0 6 -6 39 -13 72 -17 73 -17 74 -20 78 -1 1 -3 9 -5 17 -2 14 -27
128 -30 140 -1 3 -5 21 -10 40 -5 19 -9 42 -10 50 -1 8 -7 33 -13 55 -6 22
-13 54 -16 70 -3 17 -10 45 -15 63 -5 17 -7 32 -4 32 3 0 0 6 -6 14 -6 8 -11
18 -10 22 1 5 0 11 -1 14 -1 3 -3 14 -5 25 -2 11 -11 50 -19 87 -9 38 -23 98
-32 135 -19 81 -30 129 -39 163 -6 25 -9 40 -19 90 -2 14 -7 36 -11 50 -7 25
-22 93 -31 139 -3 14 -7 28 -9 31 -2 4 -7 21 -10 39 -3 17 -12 60 -21 94 -18
75 -25 106 -28 132 -2 11 -6 27 -10 35 -5 14 -31 129 -42 190 -3 14 -7 32 -11
40 -4 8 -7 26 -9 40 -1 14 -3 26 -4 28 -1 1 -4 7 -5 12 -1 6 -3 11 -5 13 -2 3
-10 37 -15 70 -2 15 -7 31 -9 36 -3 5 -8 24 -11 42 -2 19 -9 51 -14 71 -11 47
-29 44 209 33 63 -3 165 -7 225 -10 61 -2 157 -6 215 -10 58 -3 152 -7 210
-10 334 -14 384 -17 393 -22 6 -3 7 -1 3 5 -5 9 -1 9 16 3 13 -5 34 -8 48 -7
14 1 28 -3 32 -9 5 -7 8 -7 8 1 0 5 15 9 33 8 17 -2 97 -6 177 -9 79 -4 147
-8 151 -11 4 -2 11 0 14 6 4 7 11 8 18 2 7 -5 84 -12 172 -15 184 -7 313 -13
510 -23 77 -4 193 -7 258 -8 102 -1 120 1 131 16 7 10 16 15 19 11 7 -6 11 13
8 31 -1 5 4 13 11 17 11 7 11 9 0 9 -7 0 -11 4 -8 8 9 15 -31 55 -68 67 -20 7
-36 9 -36 3 0 -5 -4 -7 -8 -4 -5 3 -67 8 -138 11 -259 12 -289 14 -289 15 0 1
-133 6 -295 11 -52 1 -98 4 -102 6 -7 3 -230 12 -410 16 -38 1 -68 6 -68 10 0
4 -9 3 -20 -3 -11 -6 -20 -7 -20 -3 0 4 -39 9 -88 9 -48 1 -148 4 -222 8 -74
3 -187 9 -250 11 -63 3 -160 7 -215 10 -55 3 -151 7 -213 9 -62 2 -116 6 -119
10 -3 3 -12 1 -20 -5 -7 -6 -13 -8 -13 -3 0 5 -48 10 -108 12 -59 1 -141 5
-182 7 -41 2 -144 6 -228 9 -108 3 -156 8 -165 18 -13 12 -17 25 -33 98 -3 14
-11 47 -19 74 -8 27 -12 52 -10 56 3 5 1 10 -4 12 -5 1 -12 19 -14 38 -3 19
-6 35 -7 35 -2 0 -4 11 -15 67 l-7 37 45 -4 c25 -1 50 -5 55 -9 6 -3 13 -2 17
4 4 6 11 8 16 4 6 -3 78 -8 162 -10 84 -2 220 -6 302 -9 161 -5 346 -11 625
-19 96 -3 236 -8 310 -11 74 -3 186 -6 247 -7 62 -2 113 -6 113 -10 0 -5 5 -8
11 -8 5 0 8 3 6 8 -3 4 11 6 31 5 40 -2 293 -12 487 -18 178 -7 441 -14 606
-18 80 -2 151 -7 159 -12 9 -6 11 -4 5 5 -6 9 -4 11 5 5 8 -5 82 -10 164 -12
83 -2 221 -6 306 -8 435 -14 499 -14 514 0 7 8 16 12 19 9 3 -3 10 4 17 15 6
12 7 21 3 21 -4 0 -2 5 4 11 17 17 5 42 -34 69 -38 26 -50 28 -198 34 -55 2
-104 4 -108 5 -5 1 -6 10 -2 20 8 28 9 146 1 211 -9 67 -30 154 -59 240 -11
36 -22 68 -23 73 -1 4 -3 9 -4 12 -1 3 -4 10 -5 15 -1 6 -4 12 -5 15 -1 3 -3
8 -5 13 -4 13 -17 47 -26 67 -6 11 -11 30 -12 42 0 12 -4 20 -7 18 -3 -2 -14
23 -24 56 -9 32 -22 59 -27 59 -6 0 -7 5 -4 10 4 6 2 16 -3 23 -5 7 -17 37
-27 67 -10 30 -23 61 -29 69 -9 12 -8 13 3 7 8 -6 7 0 -4 18 -10 14 -14 26
-10 26 4 0 2 7 -5 15 -7 8 -10 15 -7 15 3 0 -1 20 -8 44 -8 24 -11 47 -8 50 4
3 1 6 -5 6 -7 0 -11 3 -10 8 2 6 -2 29 -18 117 -1 6 -3 12 -4 15 -6 12 -6 209
0 205 4 -2 13 11 20 30 8 19 17 35 22 35 4 0 8 7 8 15 0 8 4 15 8 15 4 0 20
25 36 55 15 30 32 55 37 55 6 0 8 4 4 9 -3 5 -1 12 4 15 12 8 131 245 131 262
0 8 5 14 10 14 6 0 10 7 10 15 0 8 4 23 9 33 27 51 62 159 88 267 13 58 18
198 8 243 -3 12 -7 32 -10 43 -9 43 -28 95 -52 142 -24 47 -24 49 -4 42 34
-11 281 -13 360 -3 102 12 201 60 201 97 0 6 5 11 10 11 6 0 10 12 10 26 0 14
5 34 10 45 8 13 7 19 0 19 -6 0 -9 4 -6 8 7 12 -32 82 -57 103 -27 22 -94 40
-128 34 -82 -13 -114 -16 -199 -15 -197 1 -232 11 -263 77 -19 41 -22 65 -21
163 0 63 3 126 6 140 17 85 -61 198 -134 193 -10 -1 -20 2 -23 7 -3 5 -21 2
-40 -6 -19 -8 -35 -11 -35 -7 0 4 -21 -14 -46 -41 -25 -27 -43 -51 -40 -53 3
-3 1 -13 -3 -22 -19 -35 -32 -244 -20 -316 4 -22 10 -56 13 -75 6 -44 28 -105
55 -158 28 -54 27 -59 -11 -57 -37 2 -119 -23 -130 -39 -4 -6 -8 -7 -8 -2 0 5
-7 2 -16 -5 -14 -11 -16 -10 -14 6 1 11 2 22 1 25 -1 3 -4 21 -6 40 -2 19 -7
51 -10 70 -4 19 -9 45 -10 56 -2 12 -8 30 -14 41 -5 11 -8 23 -4 26 3 4 1 13
-6 21 -6 8 -11 18 -10 22 1 5 0 11 -1 14 -3 10 -10 36 -16 65 -3 17 -9 39 -14
50 -5 11 -12 34 -16 50 -10 39 -11 44 -14 50 -1 3 -3 9 -4 14 0 5 -4 13 -8 17
-5 4 -8 14 -8 23 0 9 -7 29 -15 45 -9 16 -16 40 -17 53 -1 12 -6 23 -10 23 -7
0 -23 41 -20 53 1 4 -2 7 -6 7 -5 0 -19 23 -32 50 -13 28 -27 50 -32 50 -5 0
-7 4 -4 9 3 5 -1 14 -9 21 -8 7 -15 19 -15 27 0 7 -7 16 -15 19 -8 4 -12 10
-9 15 3 5 2 9 -3 9 -4 0 -16 11 -25 24 l-17 24 102 27 c164 45 218 73 255 134
18 28 28 51 24 51 -5 0 -9 7 -9 15 0 8 4 15 8 15 11 0 -13 62 -39 98 -12 17
-29 32 -37 32 -7 0 -15 4 -17 9 -1 5 -21 12 -44 15 -39 6 -81 -3 -296 -63 -56
-15 -68 -16 -72 -4 -3 7 1 16 9 19 8 4 15 13 15 21 0 8 4 12 8 9 8 -5 10 1 14
44 1 11 7 20 13 20 5 0 4 4 -3 9 -8 4 -13 10 -13 12 2 16 -14 49 -24 49 -7 0
-16 7 -19 16 -3 8 -10 13 -15 9 -5 -3 -22 6 -37 20 -15 14 -23 25 -19 25 4 0
3 6 -3 13 -5 6 -10 28 -10 48 0 20 -5 46 -11 58 -7 11 -8 21 -4 21 4 0 -8 8
-27 19 -19 10 -38 17 -42 14 -5 -2 -8 0 -8 5 0 5 -10 8 -22 7 -32 -3 -48 5
-48 21 0 8 10 14 23 14 75 0 293 106 383 186 50 45 73 119 55 180 -12 42 -62
91 -108 107 -49 17 -102 5 -163 -36 -75 -50 -189 -107 -215 -107 -18 0 -35 14
-63 53 -83 112 -164 239 -188 294 -60 139 -91 172 -169 181 -133 15 -212 -109
-164 -258 28 -85 142 -271 272 -443 37 -48 62 -85 57 -82 -5 3 -27 7 -47 9
-21 2 -47 7 -58 13 -96 49 -176 21 -259 -91 -76 -101 -266 -255 -317 -256 -33
0 -117 118 -204 288 -46 89 -100 152 -130 152 -23 0 -29 1 -45 10 -9 5 -32 2
-53 -5 -20 -7 -37 -11 -37 -9 0 2 -16 -13 -35 -33 -35 -38 -51 -84 -47 -138 5
-57 119 -275 209 -397 25 -33 43 -61 41 -63 -2 -2 -27 -20 -57 -40 -55 -38
-171 -149 -204 -195 -10 -14 -28 -40 -40 -59 -12 -19 -30 -46 -39 -60 -24 -36
-68 -128 -68 -140 0 -6 -4 -11 -10 -11 -5 0 -10 -6 -10 -12 0 -26 -49 -132
-73 -159 -13 -16 -27 -34 -30 -42 -20 -52 -307 -360 -360 -387 -26 -13 -32
-12 -70 8 -23 12 -98 77 -167 143 -69 66 -142 130 -164 141 -91 50 -204 3
-231 -94 -2 -5 -4 -10 -5 -13 -7 -17 -2 -58 14 -98 13 -36 47 -75 152 -176
142 -137 211 -189 309 -233 51 -23 72 -27 140 -25 69 2 89 7 145 36 36 18 73
40 83 49 9 8 17 11 17 7 0 -5 7 0 15 11 15 17 15 14 9 -41 -3 -33 -7 -80 -9
-105 -1 -25 -3 -51 -4 -57 0 -7 -13 0 -28 15 -27 27 -51 42 -82 48 -19 4 -84
6 -93 4 -5 -2 -11 -3 -15 -4 -5 -1 -14 -5 -22 -10 -11 -7 -12 -6 -6 5 7 11 6
11 -9 -1 -10 -8 -27 -15 -38 -17 -27 -4 -74 -49 -104 -99 -26 -44 -70 -162
-78 -210 -2 -16 -5 -29 -6 -29 -7 0 -30 -158 -24 -166 3 -5 1 -9 -3 -9 -5 0
-8 -22 -7 -50 0 -30 -4 -50 -10 -50 -7 0 -7 -3 -1 -8 6 -4 10 -16 10 -27 0
-11 -4 -23 -10 -27 -7 -5 -7 -8 0 -8 6 0 10 -44 9 -113 0 -61 2 -116 5 -122 3
-5 6 -21 7 -35 1 -14 5 -50 8 -80 4 -30 9 -71 11 -90 2 -19 7 -55 10 -80 4
-25 8 -56 10 -70 2 -14 4 -25 5 -25 1 0 3 -11 6 -25 6 -36 23 -121 28 -148 3
-12 15 -57 27 -100 12 -42 22 -84 23 -92 1 -9 6 -21 10 -28 4 -7 5 -16 2 -19
-3 -4 0 -16 7 -27 7 -12 24 -56 37 -98 14 -43 28 -78 33 -78 4 0 7 -9 7 -20 0
-11 4 -28 9 -38 14 -27 72 -179 76 -201 2 -11 -1 -23 -6 -26 -5 -4 -7 -11 -4
-16 4 -5 2 -9 -2 -9 -5 0 -9 -8 -10 -17 -3 -58 -11 -111 -17 -121 -4 -7 -3
-12 2 -12 6 0 8 -19 5 -42 -6 -49 -6 -53 0 -91 2 -15 0 -30 -4 -33 -5 -3 -5
-13 0 -22 4 -9 9 -35 10 -57 0 -22 3 -51 6 -64 l4 -23 -197 6 c-371 13 -371
13 -404 -6 -16 -10 -26 -23 -23 -28 3 -6 1 -10 -6 -10 -6 0 -9 -8 -6 -20 3
-10 1 -20 -5 -22 -5 -2 -10 -10 -11 -18 -2 -8 -6 -20 -10 -26 -3 -6 -3 -14 0
-18 4 -4 8 -12 9 -19 2 -7 6 -25 9 -42 3 -16 20 -84 37 -150 16 -66 31 -127
33 -135 2 -8 4 -16 5 -17 4 -5 7 -16 15 -61 4 -23 12 -45 16 -48 5 -3 9 -16 9
-30 0 -13 5 -24 11 -24 6 0 9 -7 5 -15 -3 -9 5 -24 20 -38 21 -18 39 -22 102
-24 159 -4 252 -10 257 -15 4 -3 7 -17 9 -30 1 -13 6 -29 10 -36 4 -7 4 -16 1
-22 -3 -5 -1 -10 5 -10 6 0 9 -4 6 -8 -3 -5 4 -42 14 -83 23 -91 31 -128 33
-154 1 -11 6 -23 10 -26 4 -3 9 -23 12 -45 2 -21 4 -39 5 -39 2 0 8 -23 15
-60 3 -16 8 -37 12 -45 3 -8 8 -30 10 -49 2 -19 9 -43 14 -53 6 -11 8 -22 5
-25 -2 -3 -1 -16 5 -30 5 -13 12 -38 15 -56 3 -18 7 -36 8 -42 1 -5 5 -16 9
-23 5 -6 6 -12 4 -12 -3 0 -1 -17 5 -37 15 -62 39 -167 42 -188 2 -11 6 -27 9
-35 3 -8 8 -28 11 -45 11 -52 17 -78 33 -140 8 -33 17 -71 19 -85 2 -14 7 -36
11 -50 3 -14 7 -31 9 -39 1 -7 8 -34 14 -60 6 -25 13 -56 15 -68 5 -24 11 -47
21 -85 3 -13 7 -32 9 -43 2 -11 4 -20 5 -20 2 0 4 -9 5 -20 1 -11 10 -47 18
-80 9 -33 18 -71 20 -85 2 -14 7 -33 11 -42 4 -9 5 -22 1 -28 -3 -5 -2 -10 3
-10 5 0 8 -10 8 -23 -1 -12 1 -26 5 -32 4 -5 9 -24 12 -42 3 -17 8 -36 11 -41
3 -5 6 -25 8 -45 1 -21 6 -37 10 -37 4 0 7 -3 6 -7 -2 -9 10 -64 43 -208 5
-22 12 -51 14 -64 27 -118 39 -159 56 -192 10 -21 19 -45 19 -53 0 -16 22 -24
169 -61 179 -45 436 -93 586 -109 28 -3 91 -11 140 -17 115 -14 692 -20 810
-9 50 5 119 12 155 15 654 62 1356 288 1950 630 541 311 1006 714 1429 1240
255 318 526 794 694 1220 156 397 259 810 312 1250 4 39 7 69 20 220 11 124
13 426 4 585 -65 1211 -566 2348 -1410 3200 -142 143 -209 206 -335 310 -49
41 -91 77 -94 80 -16 18 -253 189 -355 257 -540 358 -1135 603 -1770 727 -155
30 -231 43 -305 51 -30 4 -66 8 -80 10 -29 4 -121 13 -205 21 -102 8 -534 11
-645 4z m429 -1555 c41 -19 58 -32 57 -43 -2 -9 3 -23 11 -30 7 -8 12 -17 10
-20 -2 -4 6 -16 18 -27 23 -22 29 -25 48 -25 20 0 53 -72 52 -112 0 -21 2 -38
6 -38 7 0 21 -42 24 -72 1 -10 -3 -18 -9 -18 -6 0 -60 39 -121 86 -158 124
-180 137 -234 135 -70 -3 -71 -4 -71 -14 0 -6 -3 -7 -7 -4 -12 12 -83 -73 -85
-101 -6 -111 11 -137 171 -262 69 -55 132 -105 139 -111 11 -9 10 -14 -2 -28
-9 -10 -13 -21 -9 -24 3 -4 1 -7 -5 -7 -7 0 -12 -7 -12 -15 0 -8 -4 -15 -10
-15 -5 0 -10 -9 -10 -19 0 -11 -5 -23 -10 -26 -6 -4 -8 -11 -5 -16 4 -5 1 -9
-6 -9 -7 0 -9 -3 -6 -7 4 -3 2 -12 -5 -20 -6 -7 -8 -16 -5 -20 4 -3 3 -11 -2
-17 -6 -7 -12 -23 -15 -36 -12 -57 -15 -71 -21 -80 -8 -13 -15 -85 -18 -182
-1 -42 -4 -76 -7 -76 -18 1 -50 -16 -47 -26 2 -6 -4 -19 -14 -29 -9 -10 -14
-27 -12 -38 3 -10 0 -19 -6 -19 -6 0 -11 5 -11 11 0 5 -4 7 -10 4 -5 -3 -10 0
-10 7 0 9 -3 9 -11 -2 -7 -11 -8 -1 -4 35 3 28 6 55 6 60 1 15 -11 207 -14
227 -2 10 -6 20 -9 23 -6 6 -41 -63 -41 -82 0 -7 -4 -13 -8 -13 -8 0 -24 -40
-21 -52 1 -5 -3 -8 -9 -8 -5 0 -8 -4 -4 -9 3 -5 0 -13 -6 -16 -5 -4 -8 -13 -5
-21 3 -7 1 -16 -5 -19 -5 -4 -6 -12 -2 -18 7 -12 -19 5 -44 30 -7 6 -26 10
-43 9 l-30 -2 6 60 c3 34 6 79 7 101 1 22 6 45 10 52 4 6 3 14 -1 17 -5 3 -7
25 -5 48 2 24 4 48 4 53 -1 6 -3 48 -5 95 -3 47 -8 101 -11 120 -3 19 -8 50
-11 69 -2 19 -8 39 -11 45 -4 6 -8 16 -9 21 -5 30 -10 41 -24 52 -8 7 -11 13
-7 13 5 0 -1 12 -12 26 -12 15 -21 30 -21 34 0 4 24 23 53 43 60 42 219 194
264 252 39 51 83 132 76 138 -3 3 -2 10 1 15 7 12 115 -18 195 -53z m-996
-457 c57 -29 169 -36 231 -15 50 17 76 14 76 -9 0 -8 3 -14 8 -14 10 0 43 -82
48 -122 3 -18 9 -44 13 -58 10 -30 7 -413 -4 -490 -5 -30 -9 -66 -11 -80 -1
-14 -3 -25 -4 -25 -1 0 -3 -19 -4 -42 -2 -45 -12 -64 -24 -48 -18 26 -102 38
-161 23 -42 -9 -101 -99 -101 -152 0 -63 64 -149 173 -233 30 -23 31 -31 12
-118 -4 -16 -8 -37 -10 -45 -2 -8 -4 -15 -5 -15 -2 0 -3 -5 -13 -55 -3 -14
-10 -39 -16 -57 -5 -17 -7 -34 -3 -37 3 -3 -1 -6 -8 -6 -7 0 -11 -3 -8 -6 4
-3 2 -20 -3 -37 -6 -18 -12 -43 -15 -56 -3 -14 -7 -28 -10 -33 -5 -8 -13 -43
-19 -78 -1 -8 -7 -28 -14 -44 -6 -15 -12 -39 -13 -52 -1 -13 -6 -24 -11 -24
-4 0 -6 -4 -3 -8 2 -4 -4 -38 -14 -75 -31 -110 -78 -337 -82 -394 -1 -7 -5
-13 -8 -13 -4 0 -6 -14 -5 -30 1 -17 -1 -33 -5 -35 -5 -3 -7 -16 -5 -30 1 -14
-1 -25 -4 -25 -4 0 -7 -15 -7 -32 -1 -40 -14 -141 -20 -147 -2 -2 1 -11 6 -20
5 -10 5 -23 0 -31 -5 -9 -5 -19 2 -27 6 -7 7 -13 2 -13 -10 0 -11 -57 -1 -66
3 -4 2 -14 -3 -24 -5 -10 -6 -20 -3 -24 3 -3 7 -29 8 -58 3 -67 14 -166 22
-198 4 -13 7 -36 9 -50 1 -14 3 -25 4 -25 1 0 3 -15 5 -34 2 -19 7 -46 11 -60
4 -14 8 -35 10 -46 4 -26 11 -65 17 -90 17 -70 39 -148 55 -195 11 -30 20 -57
20 -60 1 -3 7 -21 14 -40 7 -19 11 -38 10 -42 -1 -5 3 -8 10 -8 6 0 8 -3 5 -6
-3 -4 -2 -15 4 -26 22 -40 0 -27 -27 17 -16 25 -32 45 -36 45 -5 0 -8 4 -8 9
0 11 -98 169 -118 189 -7 8 -10 17 -7 22 3 5 2 10 -3 12 -10 4 -72 96 -72 107
0 5 -7 14 -15 21 -8 7 -13 16 -10 20 3 5 1 11 -4 14 -22 14 -143 250 -133 260
3 3 0 6 -6 6 -7 0 -12 8 -12 18 0 10 -3 22 -7 26 -11 11 -33 79 -33 104 0 12
-3 22 -8 22 -4 0 -8 17 -9 38 -3 54 -11 137 -13 137 -1 0 -2 15 -3 33 -1 17 2
32 6 32 5 0 5 6 0 13 -13 21 -13 128 1 120 8 -5 8 -3 0 8 -6 8 -9 39 -8 69 5
79 5 76 4 125 -1 24 1 49 4 54 4 5 2 12 -4 16 -6 4 -7 12 -3 18 4 7 8 28 9 47
3 71 14 208 20 251 4 24 8 53 9 64 1 11 3 20 5 20 1 0 3 14 4 30 2 17 7 50 11
75 4 25 8 51 8 58 0 6 3 12 7 12 3 0 6 8 6 18 1 31 12 95 34 192 35 155 37
164 45 235 3 28 8 61 10 75 2 14 6 59 10 100 3 42 7 85 10 98 2 14 -1 22 -11
22 -8 0 -13 -3 -12 -7 1 -5 -10 -34 -25 -65 -15 -31 -27 -64 -27 -72 0 -9 -4
-16 -9 -16 -4 0 -16 -21 -25 -47 -10 -27 -21 -57 -26 -68 -8 -19 -22 -62 -48
-145 -7 -19 -14 -51 -17 -70 -5 -39 -12 -74 -15 -77 -2 -2 -4 -12 -5 -23 -1
-11 -4 -21 -5 -22 -1 -2 -4 -15 -6 -31 -3 -32 -10 -71 -20 -112 -4 -16 -7 -40
-7 -52 -1 -13 -4 -23 -7 -23 -4 0 -6 -10 -5 -22 1 -13 -3 -26 -9 -30 -7 -5 -7
-8 2 -8 8 0 10 -5 5 -12 -4 -7 -8 -24 -10 -38 -1 -14 -4 -45 -7 -70 -3 -25 -8
-66 -9 -91 -2 -25 -7 -51 -11 -57 -3 -6 -2 -13 4 -17 6 -4 7 -11 4 -17 -6 -10
-11 -87 -15 -233 -1 -38 -4 -62 -6 -52 -3 9 -9 17 -15 17 -6 0 -6 6 2 15 10
12 10 15 0 15 -8 0 -10 3 -7 7 4 3 2 12 -3 19 -6 6 -10 16 -9 20 2 5 -3 34 -9
64 -19 88 -23 104 -28 130 -2 14 -11 57 -20 95 -9 39 -18 80 -20 93 -2 12 -7
34 -10 50 -7 38 -15 83 -17 107 -1 11 -4 22 -7 25 -16 16 -34 118 -34 202 -1
53 -4 100 -8 104 -4 4 -4 12 -1 17 4 6 8 47 9 92 1 44 4 105 8 135 3 30 8 82
11 115 4 33 10 65 16 71 5 6 7 13 4 16 -3 3 27 41 66 84 93 104 152 181 180
234 42 81 22 189 -43 229 -13 8 -25 13 -27 12 -10 -7 -18 25 -9 36 6 7 8 13 4
13 -4 0 1 11 10 25 9 14 12 25 8 25 -5 0 -4 4 2 8 5 4 18 24 27 44 10 20 22
40 27 43 6 3 10 15 10 26 0 11 5 17 10 14 6 -3 10 1 10 9 0 9 5 16 12 16 6 0
9 3 5 6 -5 6 0 15 31 49 6 7 12 16 12 19 0 24 220 206 248 206 7 0 32 -10 55
-22z m1243 -272 c79 -2 88 -5 116 -31 35 -33 131 -174 131 -192 0 -7 3 -13 6
-13 3 0 12 -15 20 -32 8 -18 24 -55 36 -83 13 -27 26 -61 29 -75 4 -14 11 -34
16 -45 17 -38 52 -164 53 -192 0 -7 5 -13 10 -13 5 0 7 -6 4 -12 -2 -7 0 -24
6 -38 5 -14 11 -29 11 -35 1 -5 7 -35 14 -65 13 -62 19 -96 27 -160 3 -24 10
-49 15 -54 14 -14 12 -32 -3 -48 -21 -22 -84 -114 -102 -149 -10 -18 -24 -39
-32 -47 -8 -8 -12 -21 -9 -28 3 -8 2 -14 -3 -14 -5 0 -14 -13 -21 -30 -7 -16
-16 -30 -21 -30 -5 0 -8 -3 -7 -7 4 -13 -24 -73 -34 -73 -5 0 -7 -4 -3 -9 3
-5 -3 -17 -12 -27 -10 -10 -17 -19 -16 -21 4 -8 -10 -43 -18 -43 -5 0 -8 -3
-7 -7 1 -5 -10 -30 -25 -58 -14 -27 -27 -48 -27 -45 -1 3 -3 34 -6 70 -9 155
-13 200 -19 210 -3 5 -1 10 5 10 6 0 8 5 4 12 -4 7 -9 28 -11 48 -6 67 -19
124 -48 220 -1 3 -7 18 -13 33 -7 15 -11 31 -10 35 3 12 -30 82 -39 82 -4 0
-9 -17 -10 -38 -4 -86 -9 -128 -17 -141 -7 -10 -5 -12 4 -6 9 6 11 4 5 -5 -9
-15 -13 -170 -4 -170 3 0 6 -15 7 -32 1 -18 2 -55 3 -81 2 -26 6 -50 10 -53 5
-3 4 -16 -1 -29 -5 -14 -6 -25 -2 -25 4 0 8 -44 10 -98 5 -176 8 -221 15 -228
3 -4 2 -15 -4 -25 -5 -11 -6 -19 -2 -19 4 0 0 -7 -10 -14 -10 -8 -18 -16 -18
-18 2 -13 -13 -48 -20 -48 -5 0 -9 -7 -9 -15 0 -8 -4 -15 -10 -15 -5 0 -10 -6
-10 -14 0 -7 -7 -19 -15 -26 -8 -7 -12 -16 -9 -21 3 -5 0 -9 -5 -9 -6 0 -11
-7 -11 -15 0 -8 -4 -15 -10 -15 -5 0 -10 -6 -10 -14 0 -8 -4 -16 -8 -18 -4 -1
-26 -32 -47 -68 -21 -36 -41 -67 -44 -70 -3 -3 -15 -21 -25 -40 -11 -19 -22
-37 -25 -40 -4 -3 -20 -27 -37 -54 -19 -28 -34 -44 -38 -37 -4 6 -3 11 1 11 5
0 9 10 10 23 1 30 12 132 14 132 2 0 8 73 10 128 1 26 6 50 11 53 4 3 4 13 -2
23 -5 10 -7 21 -3 24 6 7 9 48 17 272 3 72 6 130 7 130 0 0 2 122 4 270 l4
270 75 40 c87 47 131 86 146 129 11 35 9 116 -3 116 -5 0 -6 4 -3 9 13 21 -99
100 -134 94 -3 0 -24 -3 -46 -7 l-41 -6 4 48 c2 26 8 49 13 50 6 2 7 9 3 15
-13 21 -16 93 -8 197 10 132 22 190 39 190 6 0 5 4 -3 9 -9 6 -10 11 -2 15 6
4 11 16 11 26 0 23 50 142 65 152 5 4 7 8 3 8 -3 0 3 11 15 24 12 13 25 22 30
19 5 -3 47 -6 93 -7z m-659 -691 c-1 -19 -6 -35 -11 -35 -6 0 -5 -5 2 -12 7
-7 8 -17 1 -30 -5 -10 -7 -18 -4 -18 4 0 3 -5 0 -10 -4 -7 -21 -2 -46 12 -55
31 -68 48 -62 81 5 26 9 27 44 24 23 -2 47 2 57 9 9 7 18 14 19 14 1 0 1 -16
0 -35z m249 -20 c8 -8 16 -32 18 -55 3 -36 0 -42 -24 -55 -15 -8 -39 -17 -54
-20 -14 -3 -37 -7 -51 -10 -20 -4 -25 -1 -25 14 0 14 10 21 35 25 20 4 33 11
30 16 -3 5 4 11 15 15 11 4 18 11 15 16 -4 5 -1 9 5 9 6 0 8 5 5 10 -4 6 -1
18 7 27 11 14 11 16 -1 8 -10 -5 -12 -4 -7 3 9 15 14 15 32 -3z m1292 -375
c24 -7 49 -21 55 -30 7 -10 14 -17 17 -17 11 2 50 -38 50 -50 0 -7 5 -13 11
-13 5 0 7 -4 4 -10 -3 -5 -1 -10 4 -10 6 0 11 -3 10 -7 -1 -5 2 -19 7 -33 4
-14 6 -27 5 -29 -2 -2 2 -7 8 -10 6 -4 12 -26 14 -49 3 -24 6 -45 8 -47 6 -6
2 -100 -6 -142 -3 -18 -6 -35 -5 -38 0 -3 -7 -21 -15 -41 -8 -20 -12 -40 -9
-45 3 -5 1 -9 -3 -9 -5 0 -9 -8 -10 -18 -2 -31 -8 -46 -20 -60 -7 -7 -14 -20
-14 -28 -1 -8 -2 -19 -3 -24 0 -6 -8 -15 -16 -20 -8 -5 -12 -12 -8 -15 6 -7
-92 -212 -123 -256 -10 -14 -16 -29 -12 -33 3 -3 2 -6 -4 -6 -6 0 -13 -8 -17
-17 -3 -10 -19 -38 -36 -63 -16 -25 -33 -52 -37 -60 -3 -8 -18 -30 -31 -47
-13 -18 -21 -33 -17 -33 4 0 -3 -10 -16 -22 -14 -13 -26 -26 -27 -30 -7 -21
-38 -68 -44 -68 -5 0 -8 -6 -8 -14 0 -8 -7 -17 -16 -20 -9 -4 -14 -9 -11 -12
3 -3 -2 -14 -11 -24 -24 -26 -55 -64 -72 -90 -14 -21 -29 -39 -71 -87 -10 -13
-16 -23 -12 -23 3 0 -5 -10 -18 -23 -13 -12 -33 -35 -44 -51 -11 -15 -24 -33
-30 -40 -5 -6 -28 -34 -49 -61 -22 -28 -46 -56 -55 -62 -8 -7 -12 -13 -8 -13
3 0 -17 -30 -44 -67 -28 -38 -56 -78 -62 -90 -5 -13 -14 -23 -19 -23 -5 0 -6
-4 -3 -10 3 -5 1 -10 -4 -10 -6 0 -11 -7 -11 -15 0 -8 -3 -15 -8 -15 -4 0 -13
-15 -21 -32 -8 -18 -20 -40 -28 -50 -8 -9 -16 -23 -17 -32 -1 -8 -11 -25 -22
-37 -10 -12 -13 -19 -7 -15 9 5 11 2 7 -8 -3 -9 -10 -16 -14 -16 -7 0 -11 -11
-20 -48 -1 -4 -7 -13 -13 -20 -6 -8 -13 -23 -14 -35 -2 -12 -7 -24 -12 -27 -5
-3 -12 -22 -16 -43 -4 -20 -11 -37 -16 -37 -5 0 -9 -7 -9 -17 0 -9 -12 -41
-26 -71 -15 -31 -27 -66 -28 -79 0 -13 -4 -23 -7 -23 -4 0 -10 -20 -14 -46
l-6 -45 -90 5 c-49 3 -94 8 -99 11 -5 3 -11 1 -15 -5 -4 -6 -11 -7 -17 -4 -5
3 -28 6 -51 6 -54 -1 -60 4 -42 38 9 17 15 32 14 35 0 6 22 55 64 145 25 53
98 183 107 190 3 3 11 16 18 30 6 14 16 32 22 40 5 8 35 58 67 110 31 52 60
97 65 98 4 2 8 8 8 13 0 5 15 31 34 58 19 27 32 52 29 55 -4 3 -2 6 4 6 6 0
30 30 54 68 23 37 47 69 51 70 4 2 8 10 8 18 0 8 5 14 10 14 6 0 10 7 10 15 0
8 4 15 8 15 5 0 15 12 23 28 8 15 16 29 19 32 18 17 60 80 60 89 0 6 4 11 9
11 8 0 65 79 64 90 0 3 7 10 16 17 9 7 12 13 7 13 -5 0 1 9 14 20 13 11 19 20
14 20 -5 0 -4 4 2 8 13 9 74 100 74 111 0 4 9 17 20 29 12 12 18 22 14 22 -4
0 0 8 8 18 9 9 37 54 63 99 25 46 51 85 56 89 5 3 9 14 9 24 0 10 3 20 8 22
10 4 92 144 92 157 0 6 4 11 10 11 5 0 9 3 8 8 -1 4 4 23 11 42 8 19 13 39 12
43 -1 4 6 21 14 37 9 17 13 30 10 30 -3 0 2 18 11 40 9 23 14 43 12 46 -3 2
-25 -16 -49 -42 -24 -25 -60 -62 -79 -82 -45 -46 -110 -136 -110 -151 0 -6 -4
-11 -10 -11 -5 0 -10 -4 -10 -9 0 -12 -63 -115 -73 -119 -4 -2 -5 -8 -1 -13 3
-5 0 -9 -6 -9 -6 0 -8 -4 -5 -10 3 -5 1 -10 -4 -10 -6 0 -11 -7 -11 -15 0 -9
-7 -18 -15 -21 -8 -4 -13 -10 -10 -14 3 -4 -4 -18 -14 -31 -10 -13 -20 -28
-22 -34 -7 -16 -49 -83 -106 -169 -29 -43 -53 -83 -53 -88 0 -4 -4 -8 -8 -8
-4 0 -16 -15 -27 -32 -19 -33 -28 -46 -53 -73 -7 -8 -10 -15 -6 -15 4 0 -3 -8
-14 -19 -12 -10 -22 -23 -22 -30 0 -6 -4 -11 -10 -11 -5 0 -10 -7 -10 -15 0
-8 -4 -15 -10 -15 -5 0 -10 -7 -10 -15 0 -8 -4 -15 -10 -15 -5 0 -10 -5 -10
-10 0 -11 -9 -24 -42 -60 -9 -10 -14 -20 -12 -23 2 -2 -7 -16 -21 -31 -13 -14
-25 -30 -25 -34 0 -4 -7 -15 -15 -25 -8 -9 -15 -19 -15 -22 0 -3 -7 -13 -15
-22 -8 -10 -15 -21 -15 -25 0 -5 -8 -17 -17 -27 -33 -36 -44 -51 -37 -51 3 0
-5 -15 -20 -34 -14 -19 -26 -38 -26 -41 0 -3 -12 -22 -26 -41 -15 -19 -22 -34
-18 -34 5 0 4 -4 -2 -8 -6 -4 -19 -20 -28 -37 -10 -16 -27 -46 -39 -67 -50
-83 -107 -188 -106 -194 0 -4 -3 -10 -8 -13 -6 -5 -53 -93 -58 -111 -1 -3 -5
-12 -8 -20 -17 -40 -30 -76 -33 -89 -1 -8 -6 -17 -11 -20 -5 -3 -9 -15 -8 -26
0 -18 -7 -20 -63 -20 -34 0 -62 -3 -62 -6 0 -15 -50 5 -51 20 0 9 -2 23 -4 31
-2 8 -5 26 -8 40 -3 14 -10 39 -17 55 -6 17 -11 30 -11 30 0 0 5 14 11 30 7
17 14 41 16 54 3 13 12 40 21 60 9 20 17 38 18 41 6 20 41 86 48 88 4 2 7 8 7
12 0 5 25 51 56 102 32 51 62 103 68 115 6 13 14 23 19 23 4 0 7 6 7 14 0 7
11 25 24 39 13 14 21 29 18 32 -4 4 1 11 11 16 9 6 17 16 17 24 0 7 3 15 8 17
4 2 25 30 48 63 90 133 139 200 149 207 5 4 6 8 1 8 -5 0 1 9 13 19 12 11 22
23 22 28 -1 4 5 15 13 25 8 9 12 19 9 22 -4 3 -1 6 5 6 7 0 12 7 12 16 0 8 5
12 10 9 6 -3 10 1 10 9 0 9 5 16 12 16 6 0 9 3 5 6 -3 3 -1 11 4 18 14 16 91
136 108 169 8 15 18 27 23 27 4 0 8 7 8 15 0 8 5 15 10 15 6 0 10 6 10 13 0 7
9 23 20 35 11 12 20 26 20 32 0 10 8 22 38 55 7 8 10 15 5 15 -4 0 1 7 11 15
11 8 16 15 10 15 -5 0 -5 3 1 8 6 4 17 18 24 32 53 91 106 176 114 181 5 3 9
10 9 15 1 13 14 42 53 109 19 33 44 80 57 105 13 25 25 47 28 50 3 3 20 38 39
78 19 39 39 72 44 72 4 0 5 5 2 10 -3 6 -1 10 5 10 6 0 8 5 5 10 -3 6 -2 10 3
10 5 0 9 6 9 13 0 6 20 48 45 92 68 122 72 129 83 137 6 4 6 8 1 8 -5 0 3 11
18 25 15 14 24 25 20 25 -3 0 11 16 32 35 38 33 94 67 122 71 8 1 16 4 18 6 8
9 92 1 132 -12z m-1688 -32 c23 -12 36 -24 29 -27 -13 -4 -40 -25 -71 -53 -20
-20 -38 -23 -38 -8 0 6 5 10 11 10 5 0 7 4 4 10 -6 9 12 90 19 90 2 0 23 -10
46 -22z m418 -118 c2 -35 -2 -68 -7 -73 -8 -8 -11 -6 -11 5 0 9 -21 39 -46 67
-25 28 -42 51 -37 52 28 3 68 11 72 15 15 15 26 -11 29 -66z m-1766 -22 c10
-10 18 -22 18 -28 0 -5 3 -10 8 -10 6 0 50 -87 54 -107 1 -5 7 -19 14 -32 7
-14 11 -28 8 -33 -3 -4 -1 -8 4 -8 8 0 19 -39 38 -132 1 -5 3 -9 4 -10 2 -3
10 -56 13 -95 1 -13 4 -23 7 -23 3 0 6 -8 7 -17 2 -20 7 -47 23 -111 6 -24 8
-47 5 -52 -3 -5 0 -12 6 -15 5 -4 8 -13 5 -20 -2 -7 -2 -16 2 -19 3 -4 7 -14
8 -24 2 -9 6 -30 9 -47 4 -16 7 -37 9 -45 1 -8 5 -24 9 -35 3 -11 8 -31 11
-45 3 -14 15 -59 26 -100 11 -41 23 -86 26 -99 3 -13 10 -34 16 -45 6 -12 10
-22 9 -24 -5 -5 12 -67 21 -79 6 -7 8 -13 5 -13 -3 0 1 -16 9 -35 8 -19 11
-35 8 -35 -4 0 -2 -6 3 -12 6 -7 21 -44 33 -83 13 -38 32 -90 42 -115 11 -25
24 -54 28 -65 5 -11 18 -41 29 -66 12 -25 21 -50 21 -56 0 -6 4 -13 9 -15 5
-1 11 -10 13 -18 2 -8 5 -17 8 -20 3 -3 16 -27 30 -55 14 -27 28 -52 31 -55 3
-3 20 -32 39 -65 19 -33 36 -62 39 -65 3 -3 17 -26 31 -52 13 -27 28 -48 31
-48 4 0 9 -8 12 -17 7 -23 37 -72 60 -97 9 -11 17 -26 17 -33 0 -8 7 -16 15
-19 8 -3 17 -15 21 -26 3 -11 12 -28 19 -37 8 -9 44 -59 81 -111 37 -52 71
-96 76 -98 4 -2 8 -10 8 -17 0 -7 6 -15 13 -18 6 -2 -3 -6 -20 -9 -18 -2 -33
-2 -33 2 0 9 -41 7 -57 -3 -6 -4 -14 -4 -17 1 -3 5 -53 8 -112 7 l-106 0 -26
33 c-15 19 -27 40 -28 47 -1 7 -12 23 -23 34 -12 12 -19 26 -16 31 3 4 1 10
-4 12 -14 5 -91 149 -85 159 3 5 0 9 -6 9 -6 0 -16 14 -21 30 -6 17 -15 30
-21 30 -5 0 -7 4 -3 9 3 5 -2 16 -10 25 -9 8 -15 18 -15 21 1 3 -27 63 -61
133 -34 70 -72 152 -86 182 -13 30 -31 68 -38 85 -7 16 -11 33 -9 37 3 4 1 8
-4 8 -8 0 -34 68 -36 95 -1 6 -4 12 -7 15 -4 3 -9 16 -10 30 -2 14 -8 28 -12
31 -5 3 -10 12 -11 20 -2 8 -8 25 -13 39 -6 14 -9 28 -6 33 2 4 -1 7 -6 7 -6
0 -11 5 -11 12 0 6 -14 41 -32 77 -17 36 -31 69 -30 74 1 4 -3 7 -8 7 -6 0
-10 9 -10 20 0 11 -4 20 -10 20 -5 0 -9 3 -8 8 4 14 -65 142 -73 136 -5 -3 -7
-9 -5 -13 3 -4 7 -25 10 -47 2 -21 11 -73 20 -114 8 -41 18 -88 20 -105 13
-78 17 -96 26 -120 6 -15 8 -30 5 -35 -3 -5 -1 -11 5 -15 5 -3 10 -16 10 -29
0 -12 4 -26 8 -32 5 -5 17 -37 27 -71 10 -35 22 -63 27 -63 5 0 7 -4 3 -10 -3
-5 -2 -17 3 -27 10 -20 40 -86 71 -155 11 -26 21 -52 21 -57 0 -5 7 -14 15
-21 8 -7 12 -16 9 -21 -3 -5 0 -9 5 -9 6 0 11 -5 11 -12 0 -16 100 -219 119
-242 9 -10 15 -19 14 -20 -7 -4 11 -46 19 -46 5 0 6 -4 3 -10 -3 -5 -1 -10 5
-10 6 0 8 -4 5 -10 -3 -5 -1 -10 5 -10 6 0 8 -4 5 -10 -3 -5 -2 -10 3 -10 6 0
15 -12 21 -27 12 -32 41 -81 59 -101 6 -7 12 -18 12 -23 0 -5 0 -12 0 -16 0
-4 -36 -7 -80 -7 -44 -1 -80 1 -80 4 0 3 -19 5 -42 5 l-43 -1 -44 91 c-25 49
-44 93 -43 98 1 4 -2 7 -8 7 -5 0 -10 7 -10 16 0 9 -8 28 -18 42 -11 15 -27
46 -37 70 -11 23 -22 42 -27 42 -4 0 -8 5 -8 12 0 10 -72 167 -101 220 -19 37
-109 275 -109 291 0 9 -4 17 -8 17 -4 0 -13 21 -20 48 -8 26 -18 55 -23 64 -5
10 -9 29 -9 43 0 14 -4 25 -8 25 -4 0 -9 8 -10 18 -2 21 -10 57 -12 57 -2 0
-10 36 -13 60 -1 11 -5 22 -9 25 -3 3 -9 21 -11 40 -3 19 -6 35 -7 35 -1 0 -3
11 -4 25 -2 14 -6 34 -9 45 -6 19 -17 88 -22 145 -2 14 -4 25 -5 25 -1 0 -4
14 -5 30 -7 65 -15 131 -19 160 -5 29 -19 200 -18 220 4 121 18 310 22 310 2
0 9 36 13 68 2 15 7 30 10 34 4 3 7 16 7 28 0 12 3 25 8 29 4 4 8 12 8 17 1 5
2 10 3 12 2 1 5 13 7 27 2 13 9 27 15 31 6 3 11 10 11 15 1 16 29 52 46 59 9
4 33 9 52 12 19 3 37 7 39 9 4 4 24 -10 53 -38z m1548 -13 c78 -40 165 -213
186 -370 3 -22 7 -58 10 -80 10 -72 11 -110 3 -126 -4 -8 -4 -21 1 -29 5 -8 6
-18 3 -24 -4 -5 -7 -37 -9 -70 -3 -95 -15 -276 -20 -300 -2 -11 -6 -46 -9 -76
-3 -30 -13 -95 -21 -145 -9 -49 -16 -96 -17 -102 0 -7 -4 -13 -9 -13 -5 0 -7
-4 -4 -9 3 -5 -4 -35 -15 -67 -11 -33 -22 -67 -24 -78 -3 -10 -21 -43 -42 -72
-21 -30 -43 -62 -48 -72 -31 -53 -89 -132 -97 -132 -5 0 -7 -4 -3 -9 3 -5 -2
-16 -10 -24 -8 -9 -15 -20 -15 -26 0 -6 -5 -11 -11 -11 -5 0 -7 -4 -4 -10 3
-5 2 -10 -2 -10 -5 0 -13 -9 -18 -19 -18 -35 -117 -201 -120 -201 -4 0 4 217
9 250 2 14 7 50 11 80 4 30 8 57 10 60 2 3 6 25 10 50 4 25 8 48 11 51 2 4 6
24 10 44 7 44 9 54 23 118 6 26 14 64 17 83 3 20 8 46 10 58 3 11 7 35 9 51 2
17 6 44 9 60 3 17 8 48 12 70 4 22 8 73 8 112 1 40 5 73 9 73 4 0 3 9 -3 20
-8 14 -8 20 0 20 6 0 8 5 4 11 -4 7 -8 46 -9 88 -2 42 -3 89 -4 104 -2 46 -19
21 -46 -66 -14 -45 -29 -91 -35 -102 -12 -27 -38 -140 -45 -195 -3 -25 -7 -56
-10 -70 -7 -36 -13 -70 -20 -115 -3 -23 -8 -51 -10 -63 -3 -12 -7 -32 -10 -44
-2 -12 -7 -40 -11 -63 -3 -22 -11 -43 -17 -47 -9 -6 -8 -8 2 -8 9 0 10 -4 4
-12 -6 -7 -9 -21 -8 -30 2 -10 0 -18 -4 -18 -4 0 -7 -8 -8 -17 -2 -26 -9 -65
-16 -88 -3 -11 -8 -42 -12 -69 -3 -27 -8 -53 -11 -57 -6 -10 -14 -114 -18
-232 -2 -48 -7 -91 -11 -95 -4 -4 -6 0 -3 8 3 8 1 26 -4 40 -9 24 -13 37 -24
90 -3 14 -7 32 -9 40 -2 8 -4 16 -5 18 -2 1 -4 11 -5 22 -1 11 -3 21 -5 23 -2
3 -5 23 -14 111 -4 38 -11 78 -16 90 -24 64 -41 387 -26 501 16 124 20 147 31
195 3 14 7 39 10 55 7 49 15 88 22 115 3 14 7 32 9 40 11 60 16 85 15 88 -1 1
5 18 13 37 9 21 11 35 5 35 -6 0 -1 12 10 26 20 25 46 95 57 154 8 38 80 186
116 238 37 52 101 119 138 145 28 19 73 17 120 -8z m1244 -1397 c-1 -13 -3
-23 -4 -23 -1 0 -3 -16 -5 -35 -2 -19 -4 -35 -5 -35 -1 0 -3 -11 -6 -25 -6
-31 -33 -167 -40 -199 -3 -14 -7 -28 -10 -33 -3 -4 -7 -16 -9 -26 -1 -9 -9
-37 -16 -62 -7 -25 -12 -48 -11 -52 1 -5 -3 -8 -10 -8 -6 0 -9 -3 -5 -6 5 -5
-21 -93 -42 -139 -5 -11 -15 -36 -22 -55 -12 -33 -31 -77 -78 -182 -11 -26
-26 -50 -31 -53 -6 -4 -8 -10 -5 -15 2 -4 -6 -24 -20 -44 -14 -20 -25 -42 -25
-49 0 -7 -7 -21 -15 -31 -8 -11 -15 -28 -15 -38 0 -10 -4 -18 -8 -18 -5 0 -9
-6 -9 -12 0 -19 -13 -91 -16 -95 -4 -3 -55 -6 -86 -4 -20 1 -22 4 -16 29 4 15
9 40 11 55 8 66 15 114 19 137 2 14 7 48 10 75 3 28 8 70 11 95 4 25 7 103 8
174 1 94 4 130 14 134 6 2 12 8 12 14 0 5 9 22 20 36 11 15 28 38 38 50 9 13
27 35 39 48 13 13 22 27 22 30 0 5 43 63 66 88 6 6 26 31 45 56 19 25 39 50
45 56 5 6 19 23 30 39 11 16 31 40 45 54 14 14 26 29 27 34 3 12 37 56 44 57
3 0 5 -10 3 -22z m122 -285 c10 -32 19 -65 20 -74 1 -8 9 -27 19 -42 9 -15 14
-27 10 -27 -4 0 -2 -7 5 -15 7 -8 9 -15 5 -15 -5 0 -1 -8 8 -18 9 -9 17 -29
19 -43 2 -15 10 -34 17 -43 7 -9 10 -16 7 -16 -4 0 -4 -6 1 -12 4 -7 8 -15 9
-18 0 -3 6 -18 13 -35 7 -16 13 -38 14 -47 1 -10 5 -18 10 -18 4 0 5 -4 2 -10
-3 -5 -1 -10 4 -10 6 0 10 -3 9 -7 -3 -16 15 -83 23 -89 5 -3 9 -15 9 -28 0
-12 3 -26 7 -30 6 -6 10 -16 17 -56 2 -8 7 -23 11 -32 4 -10 5 -25 1 -33 -3
-8 -2 -15 3 -15 5 0 9 -12 9 -27 0 -16 2 -61 4 -101 2 -41 0 -76 -5 -79 -4 -2
-5 -8 -2 -13 11 -18 -25 -28 -100 -26 -44 1 -85 5 -92 9 -7 4 -22 40 -34 80
-12 40 -25 80 -30 89 -5 10 -9 26 -9 37 0 11 -4 21 -10 23 -5 2 -11 13 -13 25
-2 12 -6 26 -10 29 -4 4 -7 16 -7 26 0 10 -4 18 -8 18 -5 0 -9 6 -10 13 -1 25
-11 56 -26 86 -19 36 -20 45 -3 35 6 -4 4 1 -5 12 -9 10 -17 21 -16 24 0 15
-16 67 -25 77 -6 9 -4 26 6 52 9 21 13 41 10 45 -4 3 -2 6 4 6 5 0 10 6 11 13
1 26 12 60 22 71 5 7 7 16 3 19 -3 4 -1 12 4 19 6 7 10 20 11 28 0 8 9 45 20
82 11 36 18 69 14 72 -3 3 -1 6 5 6 6 0 9 9 6 20 -3 11 -1 20 4 20 6 0 19 -26
29 -57z m-711 -570 c-3 -27 -8 -61 -10 -78 -3 -16 -7 -52 -10 -80 -3 -27 -8
-61 -11 -75 -6 -23 -10 -52 -17 -119 -3 -21 -8 -24 -40 -23 -84 1 -78 -5 -52
61 13 33 20 62 17 65 -3 3 0 6 7 6 7 0 10 4 7 8 -3 5 4 25 14 45 11 21 18 37
16 37 -3 0 1 12 9 27 8 15 12 30 9 35 -3 4 0 8 6 8 6 0 9 4 5 9 -3 5 0 15 7
23 7 7 15 22 16 33 2 11 8 23 14 26 5 3 9 9 9 13 -2 15 -1 26 4 26 3 0 2 -21
0 -47z m-2168 -30 c15 -32 31 -60 36 -61 4 -2 5 -8 1 -13 -3 -5 -1 -9 5 -9 5
0 12 -13 16 -30 4 -16 10 -30 13 -30 4 0 18 -27 32 -60 14 -33 28 -60 33 -60
4 0 7 -5 7 -10 0 -15 -160 -11 -161 4 0 6 -3 20 -5 31 -8 31 -17 295 -11 295
3 0 18 -26 34 -57z m2658 6 c-4 -5 -1 -9 6 -9 7 0 10 -3 7 -6 -3 -3 5 -33 19
-67 14 -34 25 -68 26 -74 0 -7 4 -13 9 -13 5 0 7 -3 5 -7 -3 -5 0 -19 6 -33
15 -38 17 -42 23 -77 4 -18 11 -33 16 -33 6 0 8 -7 5 -15 -4 -8 -2 -17 4 -20
26 -17 -15 -21 -177 -18 -98 2 -179 5 -181 7 -2 2 12 21 31 42 20 22 36 42 36
46 0 4 6 13 13 20 13 14 108 203 126 251 6 16 16 25 21 22 6 -4 8 -11 5 -16z
m-4475 -2490 c38 -39 39 -43 31 -83 -9 -38 -17 -93 -27 -171 -5 -42 -5 -180 1
-245 4 -49 7 -72 21 -160 7 -47 85 -315 94 -324 6 -6 7 52 5 140 -5 152 -7
178 -19 249 -18 116 -23 270 -11 350 12 78 17 95 26 89 5 -3 9 2 9 11 0 29 88
-71 99 -112 23 -91 34 -325 19 -417 -4 -28 -11 -73 -14 -101 -4 -27 -8 -54
-11 -58 -3 -4 -7 -24 -9 -45 -2 -20 -6 -48 -9 -62 -3 -14 -7 -35 -9 -47 -8
-40 -17 -147 -18 -205 -1 -31 -5 -55 -9 -52 -12 7 -209 409 -209 426 0 8 -4
18 -9 23 -12 14 -49 159 -57 225 -15 121 -5 360 20 477 4 15 8 39 11 53 5 28
25 80 31 80 2 0 22 -18 44 -41z m690 -2 c63 -8 137 -30 215 -62 84 -35 250
-118 253 -126 2 -5 10 -9 17 -9 8 0 47 -15 87 -34 106 -48 131 -59 152 -63 23
-4 54 -22 41 -23 -11 -2 -19 -4 -95 -25 -55 -15 -61 -17 -135 -30 -22 -4 -49
-9 -60 -12 -21 -4 -64 -10 -117 -17 -45 -7 -162 -17 -226 -20 -51 -3 -55 -1
-145 66 -124 94 -122 90 -47 84 123 -11 185 -18 205 -22 35 -8 219 -4 250 4
27 8 23 10 -55 34 -195 61 -186 59 -455 74 l-120 7 -63 55 -63 55 43 19 c54
24 107 37 188 44 36 4 67 8 68 10 2 1 9 1 15 -1 7 -2 28 -6 47 -8z m65 -640
c22 -15 60 -51 85 -79 25 -28 92 -99 149 -157 122 -124 246 -260 269 -293 9
-13 22 -29 29 -37 26 -26 91 -127 143 -224 30 -53 61 -105 69 -115 9 -9 33
-39 55 -65 21 -27 40 -46 43 -43 11 11 -41 165 -83 245 -66 127 -118 213 -146
242 -7 8 -31 37 -53 64 -22 28 -44 55 -50 61 -5 6 -35 40 -65 74 -30 35 -65
73 -77 86 -28 28 -31 48 -5 35 9 -5 56 -27 103 -50 48 -24 107 -61 132 -84 44
-42 127 -140 127 -150 0 -3 13 -25 29 -49 88 -131 215 -433 227 -541 3 -23 7
-49 10 -57 6 -17 15 -169 17 -303 2 -75 -1 -93 -10 -85 -7 6 -13 19 -13 29 0
10 -4 20 -9 23 -5 3 -21 31 -36 62 -61 125 -241 384 -266 384 -5 0 -9 4 -9 10
0 14 -78 98 -301 320 -194 193 -267 283 -309 376 -12 27 -28 63 -36 79 -11 25
-37 102 -83 247 -15 47 -6 46 64 -5z"/>
<path d="M6510 10840 c-7 -4 -19 -6 -27 -3 -7 3 -13 0 -13 -7 0 -6 -4 -9 -8
-6 -9 5 -42 -28 -42 -43 0 -5 -7 -14 -15 -21 -11 -9 -13 -16 -5 -24 5 -5 10
-20 10 -31 0 -33 57 -78 96 -77 29 1 114 42 89 42 -5 0 -4 4 2 8 16 10 25 92
10 92 -6 0 -8 3 -4 6 15 16 -73 76 -93 64z"/>
<path d="M6805 10800 c4 -7 -3 -9 -19 -6 -15 3 -24 1 -21 -4 3 -5 -4 -14 -15
-20 -11 -6 -18 -15 -15 -20 3 -5 1 -11 -5 -15 -6 -4 -8 -11 -5 -16 4 -5 0 -9
-7 -9 -8 0 -9 -3 -3 -8 9 -6 14 -22 17 -59 1 -6 12 -16 25 -22 13 -6 23 -14
23 -19 0 -13 94 -6 98 7 2 6 8 8 14 5 5 -3 12 3 15 15 3 12 9 21 14 21 4 0 7
8 7 18 0 9 1 22 3 28 8 21 -25 82 -50 94 -35 17 -84 23 -76 10z"/>
<path d="M6677 10598 c4 -8 -13 -12 -32 -8 -5 1 -7 -2 -3 -6 4 -4 0 -14 -10
-23 -9 -9 -19 -23 -21 -31 -12 -47 16 -120 46 -120 8 0 12 -4 9 -9 -3 -4 16
-7 42 -6 69 3 74 4 67 14 -3 5 4 13 16 16 12 4 18 12 15 21 -3 8 -1 14 5 14 6
0 8 4 4 9 -3 5 -1 12 4 15 13 9 -19 86 -36 86 -7 0 -13 7 -13 15 0 9 -6 12
-17 8 -9 -4 -14 -2 -11 3 4 5 -11 9 -32 9 -21 0 -36 -3 -33 -7z"/>
<path d="M5521 10267 c-60 -43 -69 -127 -17 -178 28 -28 37 -31 96 -34 44 -3
95 44 105 96 8 43 -42 125 -80 130 -53 8 -76 5 -104 -14z"/>
<path d="M5793 10226 c-16 -18 -27 -39 -25 -46 3 -8 0 -10 -8 -5 -10 6 -11 4
-4 -6 9 -15 12 -24 16 -54 3 -20 37 -52 51 -47 4 1 7 -2 7 -8 0 -5 18 -10 40
-10 22 0 40 5 40 11 0 5 5 7 10 4 6 -3 10 -1 10 4 0 6 8 11 17 11 9 0 13 3 10
6 -3 4 -1 16 5 28 18 32 18 44 -3 89 -10 23 -19 38 -19 32 0 -5 -4 -3 -9 4 -6
9 -29 16 -59 17 -45 2 -52 -1 -79 -30z"/>
<path d="M5763 10013 c6 -9 -1 -11 -23 -8 -17 2 -28 0 -25 -6 4 -5 -1 -9 -9
-9 -9 0 -23 -12 -33 -27 -19 -29 -30 -118 -13 -108 5 3 10 -3 10 -15 0 -12 5
-18 10 -15 6 3 10 1 10 -4 0 -6 9 -11 21 -11 11 0 17 -4 14 -10 -4 -6 1 -7 11
-3 12 4 15 3 10 -5 -5 -8 -2 -10 8 -6 9 3 13 11 9 18 -4 8 -3 8 6 0 15 -14 61
4 61 23 0 6 5 13 11 15 5 2 11 11 13 20 1 10 5 20 9 24 3 4 2 16 -4 27 -8 14
-8 18 0 13 19 -12 12 2 -13 27 -14 14 -22 28 -19 31 4 3 -1 6 -11 6 -10 0 -14
5 -10 12 4 7 3 8 -5 4 -6 -4 -19 -2 -28 6 -11 8 -14 9 -10 1z"/>
<path d="M7070 9835 c0 -5 -18 -10 -40 -10 -31 -1 -45 -7 -62 -28 -12 -15 -23
-33 -24 -40 -1 -6 -5 -20 -9 -29 -4 -11 -3 -18 5 -18 7 0 10 -6 7 -14 -7 -16
28 -56 48 -56 8 0 15 -5 15 -11 0 -5 5 -7 10 -4 6 3 10 1 10 -6 0 -8 3 -9 13
0 8 6 16 8 20 5 9 -9 67 28 67 43 0 7 5 13 11 13 5 0 8 4 5 9 -4 5 0 12 6 14
7 3 8 6 2 6 -6 1 -9 14 -6 31 3 19 0 30 -7 30 -7 0 -10 4 -7 8 3 5 -4 16 -15
25 -10 9 -19 14 -19 10 0 -4 -7 2 -15 13 -8 10 -15 15 -15 9z"/>
<path d="M4544 9056 c-3 -9 -10 -13 -15 -10 -5 3 -22 -7 -37 -23 -22 -22 -28
-37 -27 -68 2 -44 23 -88 45 -94 8 -2 30 -6 47 -9 20 -2 31 -9 27 -16 -3 -6 1
-3 9 7 8 9 19 17 25 17 6 0 17 9 25 20 8 11 16 18 19 15 11 -11 8 87 -4 107
-7 13 -11 26 -10 31 1 4 -1 6 -5 5 -5 -1 -19 4 -31 11 -13 7 -26 10 -29 7 -4
-3 -12 -1 -19 5 -10 9 -15 7 -20 -5z"/>
<path d="M4140 9042 c0 -7 -5 -10 -12 -6 -6 4 -8 3 -5 -3 3 -5 -3 -17 -14 -26
-10 -9 -20 -22 -20 -29 -5 -47 -4 -68 4 -68 5 0 7 -6 4 -13 -3 -8 4 -20 15
-28 11 -8 26 -19 32 -24 17 -16 88 -10 101 9 7 9 14 13 18 10 3 -3 8 4 12 15
3 12 10 21 14 21 14 0 5 80 -12 98 -9 10 -14 22 -10 25 3 4 -3 7 -15 7 -12 0
-22 4 -22 8 0 5 -16 9 -35 9 -19 0 -35 -5 -35 -11 0 -6 -5 -4 -10 4 -7 11 -10
11 -10 2z"/>
<path d="M8110 8919 c0 -5 -7 -6 -15 -3 -8 4 -15 1 -15 -5 0 -6 -3 -10 -7 -8
-5 1 -9 -2 -10 -6 -1 -5 -10 -16 -20 -25 -16 -15 -20 -38 -14 -89 2 -18 51
-64 62 -58 5 4 9 2 9 -4 0 -12 41 -11 58 2 8 6 12 5 12 -2 0 -20 53 37 57 61
2 12 8 25 14 29 8 5 8 8 0 13 -6 4 -11 15 -11 25 0 18 -40 72 -40 55 0 -5 -6
-2 -13 6 -13 16 -67 23 -67 9z"/>
<path d="M4436 8725 c-10 -8 -23 -12 -29 -8 -6 3 -7 1 -3 -5 4 -7 2 -12 -4
-12 -6 0 -9 -4 -6 -9 4 -5 2 -11 -3 -13 -12 -4 -22 -68 -11 -68 5 0 7 -8 6
-17 -6 -39 74 -75 134 -61 16 4 65 48 54 48 -4 0 -2 6 3 13 14 19 16 67 3 67
-6 0 -8 5 -5 10 9 14 -41 64 -55 55 -5 -3 -10 -2 -10 3 0 14 -53 12 -74 -3z"/>
<path d="M8262 8612 c-20 -19 -30 -31 -22 -26 12 6 13 5 4 -7 -14 -17 -15 -69
-2 -69 6 0 8 -6 6 -12 -3 -7 9 -24 26 -38 16 -14 27 -18 22 -10 -4 8 -1 7 7
-3 11 -14 16 -15 20 -5 4 9 6 10 6 1 1 -9 8 -10 25 -3 13 5 27 6 30 3 3 -4 6
-1 6 5 0 6 9 14 21 17 11 4 18 9 15 12 -3 4 -1 12 5 19 18 22 20 63 4 87 -8
13 -12 27 -8 30 3 4 -1 7 -9 7 -9 0 -21 7 -28 15 -23 27 -86 16 -128 -23z"/>
<path d="M8073 8612 c-18 -2 -33 -8 -33 -13 0 -6 -4 -8 -8 -5 -5 3 -17 -5 -27
-17 -24 -28 -28 -94 -7 -129 15 -26 92 -65 92 -47 0 6 3 8 8 5 14 -8 72 23 72
39 0 9 4 14 9 10 6 -3 8 3 6 15 -2 11 0 22 4 25 11 6 1 55 -10 55 -5 0 -8 3
-6 8 1 4 -8 17 -20 30 -13 12 -23 19 -23 16 0 -4 -6 -2 -12 2 -7 5 -28 8 -45
6z"/>
</g>
</svg>
